<svg xmlns="http://www.w3.org/2000/svg" viewBox="4629.627 2750.455 562.984 378.724">
  <defs>
    <style>
      .cls-1 {
        fill: #00aad2;
      }

      .cls-2 {
        fill: #ffd230;
      }

      .cls-3 {
        fill: #d01317;
      }
    </style>
  </defs>
  <g id="bront" transform="translate(4576 2855.734)">
    <path id="Path_152" data-name="Path 152" class="cls-1" d="M168.755,15.283,153.472,0,125.964,9.17H58.721L28.156,21.4,12.71,36.841l87.416,95.689L195.978,32.358l-2.771-1.793Z" transform="translate(129.087 -29)"/>
    <path id="Path_153" data-name="Path 153" class="cls-2" d="M95.282,254.748,76.169,32.52,20.5,165.58Z" transform="matrix(-0.105, -0.995, 0.995, -0.105, 74.14, 297.232)"/>
    <path id="Path_154" data-name="Path 154" class="cls-2" d="M154.887,247.828l37.216-4.572,6.2-23.308V193.571l-4.8-28.775-7.194-7.194V126.429l-11.99-38.367-11.99-28.775L140.756,28.115,109.359,7.94,34.16,86.528Z" transform="translate(384.408 147.091) rotate(-104)"/>
    <path id="Path_156" data-name="Path 156" class="cls-3" d="M136.242,168.909,34.16,32.52,46.839,179.939Z" transform="matrix(-0.391, -0.921, 0.921, -0.391, 400.972, 233.122)"/>
    <path id="Path_157" data-name="Path 157" class="cls-2" d="M38.85,99.6l121.893,70.259,19.317-33.785,8.884-32.6-15.323-20.5Z" transform="translate(175.882 107.309) rotate(-56)"/>
    <path id="Path_165" data-name="Path 165" class="cls-3" d="M49.06,9.04l-5.95,5.95-9.17,15.283L21.715,45.555V91.4L9.489,109.742.89,135.5l135.586-30.769Z" transform="translate(52.737 0.801)"/>
  </g>
</svg>
